<mxfile host="app.diagrams.net" modified="2024-03-24T19:12:47.536Z" agent="Mozilla/5.0 (Windows NT 10.0; Win64; x64) AppleWebKit/537.36 (KHTML, like Gecko) Chrome/122.0.0.0 Safari/537.36" etag="JS25z5C0cBPSrfLax3T9" version="24.1.0" type="device">
  <diagram name="Page-1" id="I2xnId0SaUjc1kdNmDBp">
    <mxGraphModel dx="933" dy="1490" grid="1" gridSize="10" guides="1" tooltips="1" connect="1" arrows="1" fold="1" page="1" pageScale="1" pageWidth="850" pageHeight="1100" math="0" shadow="0">
      <root>
        <mxCell id="0" />
        <mxCell id="1" parent="0" />
        <mxCell id="6ghTXY3xs65dl3x9WhEc-3" value="" style="swimlane;childLayout=stackLayout;resizeParent=1;resizeParentMax=0;startSize=0;html=1;" vertex="1" parent="1">
          <mxGeometry x="130" y="-450" width="810" height="900" as="geometry">
            <mxRectangle x="230.00000000000045" y="-450" width="50" height="40" as="alternateBounds" />
          </mxGeometry>
        </mxCell>
        <mxCell id="6ghTXY3xs65dl3x9WhEc-4" value="Child" style="swimlane;startSize=20;html=1;" vertex="1" parent="6ghTXY3xs65dl3x9WhEc-3">
          <mxGeometry width="270" height="900" as="geometry">
            <mxRectangle width="40" height="600" as="alternateBounds" />
          </mxGeometry>
        </mxCell>
        <mxCell id="6ghTXY3xs65dl3x9WhEc-7" value="" style="ellipse;fillColor=strokeColor;html=1;" vertex="1" parent="6ghTXY3xs65dl3x9WhEc-4">
          <mxGeometry x="104.99999999999955" y="30" width="30" height="30" as="geometry" />
        </mxCell>
        <mxCell id="6ghTXY3xs65dl3x9WhEc-12" value="" style="rhombus;whiteSpace=wrap;html=1;" vertex="1" parent="6ghTXY3xs65dl3x9WhEc-4">
          <mxGeometry x="94.99999999999955" y="190" width="40" height="50" as="geometry" />
        </mxCell>
        <mxCell id="6ghTXY3xs65dl3x9WhEc-15" value="&lt;span style=&quot;color: rgb(13, 13, 13); font-family: Söhne, ui-sans-serif, system-ui, -apple-system, &amp;quot;Segoe UI&amp;quot;, Roboto, Ubuntu, Cantarell, &amp;quot;Noto Sans&amp;quot;, sans-serif, &amp;quot;Helvetica Neue&amp;quot;, Arial, &amp;quot;Apple Color Emoji&amp;quot;, &amp;quot;Segoe UI Emoji&amp;quot;, &amp;quot;Segoe UI Symbol&amp;quot;, &amp;quot;Noto Color Emoji&amp;quot;; text-align: start; white-space-collapse: preserve; background-color: rgb(255, 255, 255);&quot;&gt;&lt;font style=&quot;font-size: 11px;&quot;&gt;fill in the description&lt;/font&gt;&lt;/span&gt;&lt;div&gt;&lt;span style=&quot;color: rgb(13, 13, 13); font-family: Söhne, ui-sans-serif, system-ui, -apple-system, &amp;quot;Segoe UI&amp;quot;, Roboto, Ubuntu, Cantarell, &amp;quot;Noto Sans&amp;quot;, sans-serif, &amp;quot;Helvetica Neue&amp;quot;, Arial, &amp;quot;Apple Color Emoji&amp;quot;, &amp;quot;Segoe UI Emoji&amp;quot;, &amp;quot;Segoe UI Symbol&amp;quot;, &amp;quot;Noto Color Emoji&amp;quot;; text-align: start; white-space-collapse: preserve; background-color: rgb(255, 255, 255);&quot;&gt;&lt;font style=&quot;font-size: 11px;&quot;&gt; in the clock-out attendance&lt;/font&gt;&lt;/span&gt;&lt;/div&gt;" style="rounded=1;whiteSpace=wrap;html=1;" vertex="1" parent="6ghTXY3xs65dl3x9WhEc-4">
          <mxGeometry y="260" width="115" height="50" as="geometry" />
        </mxCell>
        <mxCell id="6ghTXY3xs65dl3x9WhEc-16" value="&lt;span style=&quot;color: rgb(13, 13, 13); font-family: Söhne, ui-sans-serif, system-ui, -apple-system, &amp;quot;Segoe UI&amp;quot;, Roboto, Ubuntu, Cantarell, &amp;quot;Noto Sans&amp;quot;, sans-serif, &amp;quot;Helvetica Neue&amp;quot;, Arial, &amp;quot;Apple Color Emoji&amp;quot;, &amp;quot;Segoe UI Emoji&amp;quot;, &amp;quot;Segoe UI Symbol&amp;quot;, &amp;quot;Noto Color Emoji&amp;quot;; text-align: start; white-space-collapse: preserve; background-color: rgb(255, 255, 255);&quot;&gt;&lt;font style=&quot;font-size: 11px;&quot;&gt;select the button for clock-out attendance&lt;/font&gt;&lt;/span&gt;" style="rounded=1;whiteSpace=wrap;html=1;" vertex="1" parent="6ghTXY3xs65dl3x9WhEc-4">
          <mxGeometry x="143" y="260" width="105" height="50" as="geometry" />
        </mxCell>
        <mxCell id="6ghTXY3xs65dl3x9WhEc-17" value="" style="endArrow=classic;html=1;rounded=0;exitX=1;exitY=0.5;exitDx=0;exitDy=0;entryX=0.5;entryY=0;entryDx=0;entryDy=0;" edge="1" parent="6ghTXY3xs65dl3x9WhEc-4" source="6ghTXY3xs65dl3x9WhEc-12" target="6ghTXY3xs65dl3x9WhEc-16">
          <mxGeometry width="50" height="50" relative="1" as="geometry">
            <mxPoint x="159.99999999999955" y="340" as="sourcePoint" />
            <mxPoint x="209.99999999999955" y="260" as="targetPoint" />
            <Array as="points">
              <mxPoint x="194.99999999999955" y="215" />
              <mxPoint x="194.99999999999955" y="240" />
            </Array>
          </mxGeometry>
        </mxCell>
        <mxCell id="6ghTXY3xs65dl3x9WhEc-19" value="" style="endArrow=classic;html=1;rounded=0;exitX=0;exitY=0.5;exitDx=0;exitDy=0;entryX=0.5;entryY=0;entryDx=0;entryDy=0;" edge="1" parent="6ghTXY3xs65dl3x9WhEc-4" source="6ghTXY3xs65dl3x9WhEc-12" target="6ghTXY3xs65dl3x9WhEc-15">
          <mxGeometry width="50" height="50" relative="1" as="geometry">
            <mxPoint x="159.99999999999955" y="350" as="sourcePoint" />
            <mxPoint x="209.99999999999955" y="300" as="targetPoint" />
            <Array as="points">
              <mxPoint x="57.999999999999545" y="215" />
            </Array>
          </mxGeometry>
        </mxCell>
        <mxCell id="6ghTXY3xs65dl3x9WhEc-9" value="&lt;span style=&quot;color: rgb(13, 13, 13); font-family: Söhne, ui-sans-serif, system-ui, -apple-system, &amp;quot;Segoe UI&amp;quot;, Roboto, Ubuntu, Cantarell, &amp;quot;Noto Sans&amp;quot;, sans-serif, &amp;quot;Helvetica Neue&amp;quot;, Arial, &amp;quot;Apple Color Emoji&amp;quot;, &amp;quot;Segoe UI Emoji&amp;quot;, &amp;quot;Segoe UI Symbol&amp;quot;, &amp;quot;Noto Color Emoji&amp;quot;; text-align: left; white-space-collapse: preserve; background-color: rgb(255, 255, 255);&quot;&gt;&lt;font style=&quot;font-size: 14px;&quot;&gt;Select clock-out &lt;/font&gt;&lt;/span&gt;&lt;div&gt;&lt;span style=&quot;color: rgb(13, 13, 13); font-family: Söhne, ui-sans-serif, system-ui, -apple-system, &amp;quot;Segoe UI&amp;quot;, Roboto, Ubuntu, Cantarell, &amp;quot;Noto Sans&amp;quot;, sans-serif, &amp;quot;Helvetica Neue&amp;quot;, Arial, &amp;quot;Apple Color Emoji&amp;quot;, &amp;quot;Segoe UI Emoji&amp;quot;, &amp;quot;Segoe UI Symbol&amp;quot;, &amp;quot;Noto Color Emoji&amp;quot;; text-align: left; white-space-collapse: preserve; background-color: rgb(255, 255, 255);&quot;&gt;&lt;font size=&quot;3&quot; style=&quot;&quot;&gt;in main men&lt;/font&gt;&lt;/span&gt;&lt;br&gt;&lt;/div&gt;" style="rounded=1;whiteSpace=wrap;html=1;align=center;" vertex="1" parent="6ghTXY3xs65dl3x9WhEc-4">
          <mxGeometry x="60" y="80" width="120" height="60" as="geometry" />
        </mxCell>
        <mxCell id="6ghTXY3xs65dl3x9WhEc-8" value="" style="endArrow=classic;html=1;rounded=0;exitX=0.5;exitY=1;exitDx=0;exitDy=0;" edge="1" parent="6ghTXY3xs65dl3x9WhEc-4" source="6ghTXY3xs65dl3x9WhEc-7" target="6ghTXY3xs65dl3x9WhEc-9">
          <mxGeometry width="50" height="50" relative="1" as="geometry">
            <mxPoint x="260" y="220" as="sourcePoint" />
            <mxPoint x="220" y="110" as="targetPoint" />
          </mxGeometry>
        </mxCell>
        <mxCell id="6ghTXY3xs65dl3x9WhEc-20" value="Is the child leaving early?" style="text;html=1;align=center;verticalAlign=middle;resizable=0;points=[];autosize=1;strokeColor=none;fillColor=none;" vertex="1" parent="6ghTXY3xs65dl3x9WhEc-4">
          <mxGeometry x="20" y="140" width="160" height="30" as="geometry" />
        </mxCell>
        <mxCell id="6ghTXY3xs65dl3x9WhEc-21" value="Yes" style="text;html=1;align=center;verticalAlign=middle;resizable=0;points=[];autosize=1;strokeColor=none;fillColor=none;" vertex="1" parent="6ghTXY3xs65dl3x9WhEc-4">
          <mxGeometry x="20" y="230" width="40" height="30" as="geometry" />
        </mxCell>
        <mxCell id="6ghTXY3xs65dl3x9WhEc-22" value="No" style="text;html=1;align=center;verticalAlign=middle;resizable=0;points=[];autosize=1;strokeColor=none;fillColor=none;" vertex="1" parent="6ghTXY3xs65dl3x9WhEc-4">
          <mxGeometry x="200" y="230" width="40" height="30" as="geometry" />
        </mxCell>
        <mxCell id="6ghTXY3xs65dl3x9WhEc-60" value="Ask teacher" style="rounded=1;whiteSpace=wrap;html=1;" vertex="1" parent="6ghTXY3xs65dl3x9WhEc-4">
          <mxGeometry x="55" y="700" width="120" height="60" as="geometry" />
        </mxCell>
        <mxCell id="6ghTXY3xs65dl3x9WhEc-70" value="" style="endArrow=classic;html=1;rounded=0;exitX=1;exitY=0.5;exitDx=0;exitDy=0;entryX=0;entryY=0.5;entryDx=0;entryDy=0;" edge="1" parent="6ghTXY3xs65dl3x9WhEc-4" source="6ghTXY3xs65dl3x9WhEc-15" target="6ghTXY3xs65dl3x9WhEc-16">
          <mxGeometry width="50" height="50" relative="1" as="geometry">
            <mxPoint x="360" y="280" as="sourcePoint" />
            <mxPoint x="410" y="230" as="targetPoint" />
          </mxGeometry>
        </mxCell>
        <mxCell id="6ghTXY3xs65dl3x9WhEc-5" value="Attendance system" style="swimlane;startSize=20;html=1;" vertex="1" parent="6ghTXY3xs65dl3x9WhEc-3">
          <mxGeometry x="270" width="300" height="900" as="geometry" />
        </mxCell>
        <mxCell id="6ghTXY3xs65dl3x9WhEc-11" value="&lt;span style=&quot;color: rgb(13, 13, 13); font-family: Söhne, ui-sans-serif, system-ui, -apple-system, &amp;quot;Segoe UI&amp;quot;, Roboto, Ubuntu, Cantarell, &amp;quot;Noto Sans&amp;quot;, sans-serif, &amp;quot;Helvetica Neue&amp;quot;, Arial, &amp;quot;Apple Color Emoji&amp;quot;, &amp;quot;Segoe UI Emoji&amp;quot;, &amp;quot;Segoe UI Symbol&amp;quot;, &amp;quot;Noto Color Emoji&amp;quot;; font-size: 16px; text-align: left; white-space-collapse: preserve; background-color: rgb(255, 255, 255);&quot;&gt;Display clock-out menu&lt;/span&gt;" style="rounded=1;whiteSpace=wrap;html=1;" vertex="1" parent="6ghTXY3xs65dl3x9WhEc-5">
          <mxGeometry x="29.999999999999545" y="80" width="120" height="60" as="geometry" />
        </mxCell>
        <mxCell id="6ghTXY3xs65dl3x9WhEc-26" value="&lt;span style=&quot;color: rgb(13, 13, 13); font-family: Söhne, ui-sans-serif, system-ui, -apple-system, &amp;quot;Segoe UI&amp;quot;, Roboto, Ubuntu, Cantarell, &amp;quot;Noto Sans&amp;quot;, sans-serif, &amp;quot;Helvetica Neue&amp;quot;, Arial, &amp;quot;Apple Color Emoji&amp;quot;, &amp;quot;Segoe UI Emoji&amp;quot;, &amp;quot;Segoe UI Symbol&amp;quot;, &amp;quot;Noto Color Emoji&amp;quot;; text-align: start; white-space-collapse: preserve; background-color: rgb(255, 255, 255);&quot;&gt;&lt;font style=&quot;font-size: 11px;&quot;&gt;Child attendance check&lt;/font&gt;&lt;/span&gt;" style="rounded=1;whiteSpace=wrap;html=1;" vertex="1" parent="6ghTXY3xs65dl3x9WhEc-5">
          <mxGeometry x="70" y="260" width="105" height="50" as="geometry" />
        </mxCell>
        <mxCell id="6ghTXY3xs65dl3x9WhEc-30" value="" style="rhombus;whiteSpace=wrap;html=1;" vertex="1" parent="6ghTXY3xs65dl3x9WhEc-5">
          <mxGeometry x="108.75" y="360" width="47.5" height="50" as="geometry" />
        </mxCell>
        <mxCell id="6ghTXY3xs65dl3x9WhEc-32" value="&lt;span style=&quot;color: rgb(13, 13, 13); font-family: Söhne, ui-sans-serif, system-ui, -apple-system, &amp;quot;Segoe UI&amp;quot;, Roboto, Ubuntu, Cantarell, &amp;quot;Noto Sans&amp;quot;, sans-serif, &amp;quot;Helvetica Neue&amp;quot;, Arial, &amp;quot;Apple Color Emoji&amp;quot;, &amp;quot;Segoe UI Emoji&amp;quot;, &amp;quot;Segoe UI Symbol&amp;quot;, &amp;quot;Noto Color Emoji&amp;quot;; white-space-collapse: preserve; background-color: rgb(255, 255, 255);&quot;&gt;&lt;font style=&quot;font-size: 11px;&quot;&gt;Display a message for clocked in &lt;/font&gt;&lt;/span&gt;" style="rounded=1;whiteSpace=wrap;html=1;align=center;" vertex="1" parent="6ghTXY3xs65dl3x9WhEc-5">
          <mxGeometry x="20" y="430" width="130" height="40" as="geometry" />
        </mxCell>
        <mxCell id="6ghTXY3xs65dl3x9WhEc-33" value="&lt;span style=&quot;color: rgb(13, 13, 13); font-family: Söhne, ui-sans-serif, system-ui, -apple-system, &amp;quot;Segoe UI&amp;quot;, Roboto, Ubuntu, Cantarell, &amp;quot;Noto Sans&amp;quot;, sans-serif, &amp;quot;Helvetica Neue&amp;quot;, Arial, &amp;quot;Apple Color Emoji&amp;quot;, &amp;quot;Segoe UI Emoji&amp;quot;, &amp;quot;Segoe UI Symbol&amp;quot;, &amp;quot;Noto Color Emoji&amp;quot;; font-size: 11px; text-align: start; white-space-collapse: preserve; background-color: rgb(255, 255, 255);&quot;&gt;Child attendance check&lt;/span&gt;" style="rounded=1;whiteSpace=wrap;html=1;" vertex="1" parent="6ghTXY3xs65dl3x9WhEc-5">
          <mxGeometry x="170" y="430" width="90" height="40" as="geometry" />
        </mxCell>
        <mxCell id="6ghTXY3xs65dl3x9WhEc-35" value="" style="endArrow=classic;html=1;rounded=0;exitX=1;exitY=0.5;exitDx=0;exitDy=0;entryX=0.37;entryY=-0.031;entryDx=0;entryDy=0;entryPerimeter=0;" edge="1" parent="6ghTXY3xs65dl3x9WhEc-5" source="6ghTXY3xs65dl3x9WhEc-30" target="6ghTXY3xs65dl3x9WhEc-33">
          <mxGeometry width="50" height="50" relative="1" as="geometry">
            <mxPoint x="-10" y="350" as="sourcePoint" />
            <mxPoint x="40" y="300" as="targetPoint" />
            <Array as="points">
              <mxPoint x="203" y="385" />
            </Array>
          </mxGeometry>
        </mxCell>
        <mxCell id="6ghTXY3xs65dl3x9WhEc-36" value="Has the child&amp;nbsp;&lt;div&gt;already clocked in?&lt;/div&gt;" style="text;html=1;align=center;verticalAlign=middle;resizable=0;points=[];autosize=1;strokeColor=none;fillColor=none;" vertex="1" parent="6ghTXY3xs65dl3x9WhEc-5">
          <mxGeometry x="-2.5" y="340" width="130" height="40" as="geometry" />
        </mxCell>
        <mxCell id="6ghTXY3xs65dl3x9WhEc-39" value="" style="endArrow=classic;html=1;rounded=0;entryX=0.439;entryY=-0.025;entryDx=0;entryDy=0;entryPerimeter=0;exitX=0;exitY=0.5;exitDx=0;exitDy=0;" edge="1" parent="6ghTXY3xs65dl3x9WhEc-5" source="6ghTXY3xs65dl3x9WhEc-30" target="6ghTXY3xs65dl3x9WhEc-32">
          <mxGeometry width="50" height="50" relative="1" as="geometry">
            <mxPoint x="-10" y="350" as="sourcePoint" />
            <mxPoint x="40" y="300" as="targetPoint" />
            <Array as="points">
              <mxPoint x="77" y="385" />
            </Array>
          </mxGeometry>
        </mxCell>
        <mxCell id="6ghTXY3xs65dl3x9WhEc-37" value="Yes" style="text;html=1;align=center;verticalAlign=middle;resizable=0;points=[];autosize=1;strokeColor=none;fillColor=none;" vertex="1" parent="6ghTXY3xs65dl3x9WhEc-5">
          <mxGeometry x="20" y="400" width="40" height="30" as="geometry" />
        </mxCell>
        <mxCell id="6ghTXY3xs65dl3x9WhEc-42" value="" style="rhombus;whiteSpace=wrap;html=1;" vertex="1" parent="6ghTXY3xs65dl3x9WhEc-5">
          <mxGeometry x="127.5" y="520" width="47.5" height="50" as="geometry" />
        </mxCell>
        <mxCell id="6ghTXY3xs65dl3x9WhEc-38" value="Not yet" style="text;html=1;align=center;verticalAlign=middle;resizable=0;points=[];autosize=1;strokeColor=none;fillColor=none;" vertex="1" parent="6ghTXY3xs65dl3x9WhEc-5">
          <mxGeometry x="200" y="400" width="60" height="30" as="geometry" />
        </mxCell>
        <mxCell id="6ghTXY3xs65dl3x9WhEc-44" value="&lt;font face=&quot;Söhne, ui-sans-serif, system-ui, -apple-system, Segoe UI, Roboto, Ubuntu, Cantarell, Noto Sans, sans-serif, Helvetica Neue, Arial, Apple Color Emoji, Segoe UI Emoji, Segoe UI Symbol, Noto Color Emoji&quot; color=&quot;#0d0d0d&quot;&gt;&lt;span style=&quot;font-size: 11px; white-space-collapse: preserve; background-color: rgb(255, 255, 255);&quot;&gt;Check the child &lt;/span&gt;&lt;/font&gt;&lt;span style=&quot;color: rgba(0, 0, 0, 0); font-family: monospace; font-size: 0px; text-align: start; text-wrap: nowrap;&quot;&gt;%3CmxGraphModel%3E%3Croot%3E%3CmxCell%20id%3D%220%22%2F%3E%3CmxCell%20id%3D%221%22%20parent%3D%220%22%2F%3E%3CmxCell%20id%3D%222%22%20value%3D%22%26lt%3Bspan%20style%3D%26quot%3Bcolor%3A%20rgb(13%2C%2013%2C%2013)%3B%20font-family%3A%20S%C3%B6hne%2C%20ui-sans-serif%2C%20system-ui%2C%20-apple-system%2C%20%26amp%3Bquot%3BSegoe%20UI%26amp%3Bquot%3B%2C%20Roboto%2C%20Ubuntu%2C%20Cantarell%2C%20%26amp%3Bquot%3BNoto%20Sans%26amp%3Bquot%3B%2C%20sans-serif%2C%20%26amp%3Bquot%3BHelvetica%20Neue%26amp%3Bquot%3B%2C%20Arial%2C%20%26amp%3Bquot%3BApple%20Color%20Emoji%26amp%3Bquot%3B%2C%20%26amp%3Bquot%3BSegoe%20UI%20Emoji%26amp%3Bquot%3B%2C%20%26amp%3Bquot%3BSegoe%20UI%20Symbol%26amp%3Bquot%3B%2C%20%26amp%3Bquot%3BNoto%20Color%20Emoji%26amp%3Bquot%3B%3B%20white-space-collapse%3A%20preserve%3B%20background-color%3A%20rgb(255%2C%20255%2C%20255)%3B%26quot%3B%26gt%3B%26lt%3Bfont%20style%3D%26quot%3Bfont-size%3A%2011px%3B%26quot%3B%26gt%3BDisplay%20a%20message%20%20that%20hasn&#39;t%20clocked%20in%20yet%26lt%3B%2Ffont%26gt%3B%26lt%3B%2Fspan%26gt%3B%22%20style%3D%22rounded%3D1%3BwhiteSpace%3Dwrap%3Bhtml%3D1%3Balign%3Dcenter%3B%22%20vertex%3D%221%22%20parent%3D%221%22%3E%3CmxGeometry%20x%3D%22401.25%22%20y%3D%22-20%22%20width%3D%22128.75%22%20height%3D%2250%22%20as%3D%22geometry%22%2F%3E%3C%2FmxCell%3E%3C%2Froot%3E%3C%2FmxGraphModel%3E&lt;/span&gt;&lt;font face=&quot;Söhne, ui-sans-serif, system-ui, -apple-system, Segoe UI, Roboto, Ubuntu, Cantarell, Noto Sans, sans-serif, Helvetica Neue, Arial, Apple Color Emoji, Segoe UI Emoji, Segoe UI Symbol, Noto Color Emoji&quot; color=&quot;#0d0d0d&quot;&gt;&lt;span style=&quot;font-size: 11px; white-space-collapse: preserve; background-color: rgb(255, 255, 255);&quot;&gt;Class&lt;/span&gt;&lt;/font&gt;" style="rounded=1;whiteSpace=wrap;html=1;align=center;" vertex="1" parent="6ghTXY3xs65dl3x9WhEc-5">
          <mxGeometry x="20" y="580" width="110" height="50" as="geometry" />
        </mxCell>
        <mxCell id="6ghTXY3xs65dl3x9WhEc-45" value="Display children that have already clock out" style="rounded=1;whiteSpace=wrap;html=1;" vertex="1" parent="6ghTXY3xs65dl3x9WhEc-5">
          <mxGeometry x="170" y="580" width="110" height="50" as="geometry" />
        </mxCell>
        <mxCell id="6ghTXY3xs65dl3x9WhEc-46" value="" style="endArrow=classic;html=1;rounded=0;exitX=0;exitY=0.5;exitDx=0;exitDy=0;" edge="1" parent="6ghTXY3xs65dl3x9WhEc-5" source="6ghTXY3xs65dl3x9WhEc-42">
          <mxGeometry width="50" height="50" relative="1" as="geometry">
            <mxPoint y="520" as="sourcePoint" />
            <mxPoint x="56" y="580" as="targetPoint" />
            <Array as="points">
              <mxPoint x="56" y="545" />
            </Array>
          </mxGeometry>
        </mxCell>
        <mxCell id="6ghTXY3xs65dl3x9WhEc-47" value="" style="endArrow=classic;html=1;rounded=0;exitX=1;exitY=0.5;exitDx=0;exitDy=0;entryX=0.5;entryY=0;entryDx=0;entryDy=0;" edge="1" parent="6ghTXY3xs65dl3x9WhEc-5" source="6ghTXY3xs65dl3x9WhEc-42" target="6ghTXY3xs65dl3x9WhEc-45">
          <mxGeometry width="50" height="50" relative="1" as="geometry">
            <mxPoint y="520" as="sourcePoint" />
            <mxPoint x="50" y="470" as="targetPoint" />
            <Array as="points">
              <mxPoint x="225" y="545" />
            </Array>
          </mxGeometry>
        </mxCell>
        <mxCell id="6ghTXY3xs65dl3x9WhEc-48" value="Has the child&lt;div&gt;&amp;nbsp;already clocked out?&lt;/div&gt;" style="text;html=1;align=center;verticalAlign=middle;resizable=0;points=[];autosize=1;strokeColor=none;fillColor=none;" vertex="1" parent="6ghTXY3xs65dl3x9WhEc-5">
          <mxGeometry x="15" y="490" width="140" height="40" as="geometry" />
        </mxCell>
        <mxCell id="6ghTXY3xs65dl3x9WhEc-51" value="" style="rhombus;whiteSpace=wrap;html=1;" vertex="1" parent="6ghTXY3xs65dl3x9WhEc-5">
          <mxGeometry x="130" y="660" width="47.5" height="50" as="geometry" />
        </mxCell>
        <mxCell id="6ghTXY3xs65dl3x9WhEc-52" value="" style="endArrow=classic;html=1;rounded=0;entryX=0.5;entryY=0;entryDx=0;entryDy=0;exitX=1;exitY=0.5;exitDx=0;exitDy=0;" edge="1" parent="6ghTXY3xs65dl3x9WhEc-5" source="6ghTXY3xs65dl3x9WhEc-44" target="6ghTXY3xs65dl3x9WhEc-51">
          <mxGeometry width="50" height="50" relative="1" as="geometry">
            <mxPoint y="680" as="sourcePoint" />
            <mxPoint x="50" y="630" as="targetPoint" />
            <Array as="points">
              <mxPoint x="154" y="605" />
            </Array>
          </mxGeometry>
        </mxCell>
        <mxCell id="6ghTXY3xs65dl3x9WhEc-53" value="Check the responding teacher" style="rounded=1;whiteSpace=wrap;html=1;align=center;" vertex="1" parent="6ghTXY3xs65dl3x9WhEc-5">
          <mxGeometry x="20" y="720" width="88.75" height="40" as="geometry" />
        </mxCell>
        <mxCell id="6ghTXY3xs65dl3x9WhEc-54" value="Display children outside kindergarten." style="rounded=1;whiteSpace=wrap;html=1;" vertex="1" parent="6ghTXY3xs65dl3x9WhEc-5">
          <mxGeometry x="170" y="720" width="100" height="50" as="geometry" />
        </mxCell>
        <mxCell id="6ghTXY3xs65dl3x9WhEc-55" value="" style="endArrow=classic;html=1;rounded=0;exitX=0;exitY=0.5;exitDx=0;exitDy=0;entryX=0.368;entryY=-0.019;entryDx=0;entryDy=0;entryPerimeter=0;" edge="1" parent="6ghTXY3xs65dl3x9WhEc-5" source="6ghTXY3xs65dl3x9WhEc-51" target="6ghTXY3xs65dl3x9WhEc-53">
          <mxGeometry width="50" height="50" relative="1" as="geometry">
            <mxPoint y="680" as="sourcePoint" />
            <mxPoint x="50" y="630" as="targetPoint" />
            <Array as="points">
              <mxPoint x="53" y="685" />
            </Array>
          </mxGeometry>
        </mxCell>
        <mxCell id="6ghTXY3xs65dl3x9WhEc-56" value="" style="endArrow=classic;html=1;rounded=0;entryX=0.5;entryY=0;entryDx=0;entryDy=0;exitX=1;exitY=0.5;exitDx=0;exitDy=0;" edge="1" parent="6ghTXY3xs65dl3x9WhEc-5" source="6ghTXY3xs65dl3x9WhEc-51" target="6ghTXY3xs65dl3x9WhEc-54">
          <mxGeometry width="50" height="50" relative="1" as="geometry">
            <mxPoint y="680" as="sourcePoint" />
            <mxPoint x="50" y="630" as="targetPoint" />
            <Array as="points">
              <mxPoint x="220" y="685" />
            </Array>
          </mxGeometry>
        </mxCell>
        <mxCell id="6ghTXY3xs65dl3x9WhEc-59" value="Is the child outside&lt;div&gt;&amp;nbsp;of the kindergarten?&lt;/div&gt;" style="text;html=1;align=center;verticalAlign=middle;resizable=0;points=[];autosize=1;strokeColor=none;fillColor=none;" vertex="1" parent="6ghTXY3xs65dl3x9WhEc-5">
          <mxGeometry x="10" y="640" width="130" height="40" as="geometry" />
        </mxCell>
        <mxCell id="6ghTXY3xs65dl3x9WhEc-62" value="Save data" style="rounded=1;whiteSpace=wrap;html=1;" vertex="1" parent="6ghTXY3xs65dl3x9WhEc-5">
          <mxGeometry x="85" y="790" width="90" height="40" as="geometry" />
        </mxCell>
        <mxCell id="6ghTXY3xs65dl3x9WhEc-64" value="" style="ellipse;html=1;shape=endState;fillColor=strokeColor;" vertex="1" parent="6ghTXY3xs65dl3x9WhEc-5">
          <mxGeometry x="140" y="850" width="30" height="30" as="geometry" />
        </mxCell>
        <mxCell id="6ghTXY3xs65dl3x9WhEc-65" value="" style="endArrow=classic;html=1;rounded=0;exitX=0.75;exitY=1;exitDx=0;exitDy=0;" edge="1" parent="6ghTXY3xs65dl3x9WhEc-5" source="6ghTXY3xs65dl3x9WhEc-62" target="6ghTXY3xs65dl3x9WhEc-64">
          <mxGeometry width="50" height="50" relative="1" as="geometry">
            <mxPoint y="740" as="sourcePoint" />
            <mxPoint x="50" y="690" as="targetPoint" />
          </mxGeometry>
        </mxCell>
        <mxCell id="6ghTXY3xs65dl3x9WhEc-66" value="" style="endArrow=classic;html=1;rounded=0;exitX=0;exitY=0.5;exitDx=0;exitDy=0;entryX=0;entryY=0.5;entryDx=0;entryDy=0;" edge="1" parent="6ghTXY3xs65dl3x9WhEc-5" source="6ghTXY3xs65dl3x9WhEc-32" target="6ghTXY3xs65dl3x9WhEc-64">
          <mxGeometry width="50" height="50" relative="1" as="geometry">
            <mxPoint x="-10" y="580" as="sourcePoint" />
            <mxPoint x="10" y="780" as="targetPoint" />
            <Array as="points">
              <mxPoint x="10" y="470" />
              <mxPoint x="10" y="865" />
            </Array>
          </mxGeometry>
        </mxCell>
        <mxCell id="6ghTXY3xs65dl3x9WhEc-50" value="Yes" style="text;html=1;align=center;verticalAlign=middle;resizable=0;points=[];autosize=1;strokeColor=none;fillColor=none;" vertex="1" parent="6ghTXY3xs65dl3x9WhEc-5">
          <mxGeometry x="220" y="550" width="40" height="30" as="geometry" />
        </mxCell>
        <mxCell id="6ghTXY3xs65dl3x9WhEc-67" value="" style="endArrow=classic;html=1;rounded=0;exitX=1;exitY=0.5;exitDx=0;exitDy=0;entryX=1;entryY=0.5;entryDx=0;entryDy=0;" edge="1" parent="6ghTXY3xs65dl3x9WhEc-5" source="6ghTXY3xs65dl3x9WhEc-45" target="6ghTXY3xs65dl3x9WhEc-64">
          <mxGeometry width="50" height="50" relative="1" as="geometry">
            <mxPoint x="-10" y="740" as="sourcePoint" />
            <mxPoint x="40" y="690" as="targetPoint" />
            <Array as="points">
              <mxPoint x="290" y="620" />
              <mxPoint x="290" y="865" />
            </Array>
          </mxGeometry>
        </mxCell>
        <mxCell id="6ghTXY3xs65dl3x9WhEc-69" value="" style="endArrow=classic;html=1;rounded=0;exitX=0.5;exitY=1;exitDx=0;exitDy=0;entryX=1;entryY=0.5;entryDx=0;entryDy=0;" edge="1" parent="6ghTXY3xs65dl3x9WhEc-5" source="6ghTXY3xs65dl3x9WhEc-54" target="6ghTXY3xs65dl3x9WhEc-64">
          <mxGeometry width="50" height="50" relative="1" as="geometry">
            <mxPoint x="110" y="780" as="sourcePoint" />
            <mxPoint x="220" y="880" as="targetPoint" />
            <Array as="points">
              <mxPoint x="220" y="865" />
            </Array>
          </mxGeometry>
        </mxCell>
        <mxCell id="6ghTXY3xs65dl3x9WhEc-6" value="API system" style="swimlane;startSize=20;html=1;" vertex="1" parent="6ghTXY3xs65dl3x9WhEc-3">
          <mxGeometry x="570" width="240" height="900" as="geometry" />
        </mxCell>
        <mxCell id="6ghTXY3xs65dl3x9WhEc-28" value="&lt;span style=&quot;color: rgb(13, 13, 13); font-family: Söhne, ui-sans-serif, system-ui, -apple-system, &amp;quot;Segoe UI&amp;quot;, Roboto, Ubuntu, Cantarell, &amp;quot;Noto Sans&amp;quot;, sans-serif, &amp;quot;Helvetica Neue&amp;quot;, Arial, &amp;quot;Apple Color Emoji&amp;quot;, &amp;quot;Segoe UI Emoji&amp;quot;, &amp;quot;Segoe UI Symbol&amp;quot;, &amp;quot;Noto Color Emoji&amp;quot;; text-align: start; white-space-collapse: preserve; background-color: rgb(255, 255, 255);&quot;&gt;&lt;font style=&quot;font-size: 11px;&quot;&gt;Child attendance check&lt;/font&gt;&lt;/span&gt;" style="rounded=1;whiteSpace=wrap;html=1;" vertex="1" parent="6ghTXY3xs65dl3x9WhEc-6">
          <mxGeometry x="20" y="260" width="105" height="50" as="geometry" />
        </mxCell>
        <mxCell id="6ghTXY3xs65dl3x9WhEc-40" value="&lt;span style=&quot;color: rgb(13, 13, 13); font-family: Söhne, ui-sans-serif, system-ui, -apple-system, &amp;quot;Segoe UI&amp;quot;, Roboto, Ubuntu, Cantarell, &amp;quot;Noto Sans&amp;quot;, sans-serif, &amp;quot;Helvetica Neue&amp;quot;, Arial, &amp;quot;Apple Color Emoji&amp;quot;, &amp;quot;Segoe UI Emoji&amp;quot;, &amp;quot;Segoe UI Symbol&amp;quot;, &amp;quot;Noto Color Emoji&amp;quot;; text-align: start; white-space-collapse: preserve; background-color: rgb(255, 255, 255);&quot;&gt;&lt;font style=&quot;font-size: 11px;&quot;&gt;Child attendance check&lt;/font&gt;&lt;/span&gt;" style="rounded=1;whiteSpace=wrap;html=1;" vertex="1" parent="6ghTXY3xs65dl3x9WhEc-6">
          <mxGeometry x="70" y="420" width="105" height="50" as="geometry" />
        </mxCell>
        <mxCell id="6ghTXY3xs65dl3x9WhEc-14" value="" style="endArrow=classic;html=1;rounded=0;exitX=0.5;exitY=1;exitDx=0;exitDy=0;entryX=0.5;entryY=0;entryDx=0;entryDy=0;" edge="1" parent="6ghTXY3xs65dl3x9WhEc-3" source="6ghTXY3xs65dl3x9WhEc-11" target="6ghTXY3xs65dl3x9WhEc-12">
          <mxGeometry width="50" height="50" relative="1" as="geometry">
            <mxPoint x="159.99999999999955" y="230" as="sourcePoint" />
            <mxPoint x="109.99999999999955" y="170" as="targetPoint" />
            <Array as="points">
              <mxPoint x="359.99999999999955" y="170" />
              <mxPoint x="219.99999999999955" y="170" />
              <mxPoint x="149.99999999999955" y="170" />
              <mxPoint x="114.99999999999955" y="170" />
            </Array>
          </mxGeometry>
        </mxCell>
        <mxCell id="6ghTXY3xs65dl3x9WhEc-27" value="" style="endArrow=classic;html=1;rounded=0;entryX=0;entryY=0.5;entryDx=0;entryDy=0;exitX=1;exitY=0.5;exitDx=0;exitDy=0;" edge="1" parent="6ghTXY3xs65dl3x9WhEc-3" source="6ghTXY3xs65dl3x9WhEc-16" target="6ghTXY3xs65dl3x9WhEc-26">
          <mxGeometry width="50" height="50" relative="1" as="geometry">
            <mxPoint x="249.99999999999955" y="285" as="sourcePoint" />
            <mxPoint x="329.99999999999955" y="280" as="targetPoint" />
          </mxGeometry>
        </mxCell>
        <mxCell id="6ghTXY3xs65dl3x9WhEc-29" value="" style="endArrow=classic;html=1;rounded=0;entryX=0;entryY=0.5;entryDx=0;entryDy=0;exitX=1;exitY=0.5;exitDx=0;exitDy=0;" edge="1" parent="6ghTXY3xs65dl3x9WhEc-3" source="6ghTXY3xs65dl3x9WhEc-26" target="6ghTXY3xs65dl3x9WhEc-28">
          <mxGeometry width="50" height="50" relative="1" as="geometry">
            <mxPoint x="445" y="284.52" as="sourcePoint" />
            <mxPoint x="537" y="284.52" as="targetPoint" />
          </mxGeometry>
        </mxCell>
        <mxCell id="6ghTXY3xs65dl3x9WhEc-31" value="" style="endArrow=classic;html=1;rounded=0;exitX=0.5;exitY=1;exitDx=0;exitDy=0;entryX=0.5;entryY=0;entryDx=0;entryDy=0;" edge="1" parent="6ghTXY3xs65dl3x9WhEc-3" source="6ghTXY3xs65dl3x9WhEc-28" target="6ghTXY3xs65dl3x9WhEc-30">
          <mxGeometry width="50" height="50" relative="1" as="geometry">
            <mxPoint x="159.99999999999955" y="330" as="sourcePoint" />
            <mxPoint x="209.99999999999955" y="280" as="targetPoint" />
            <Array as="points">
              <mxPoint x="643" y="330" />
              <mxPoint x="400" y="330" />
            </Array>
          </mxGeometry>
        </mxCell>
        <mxCell id="6ghTXY3xs65dl3x9WhEc-10" value="" style="endArrow=classic;html=1;rounded=0;exitX=1;exitY=0.5;exitDx=0;exitDy=0;entryX=0;entryY=0.5;entryDx=0;entryDy=0;" edge="1" parent="6ghTXY3xs65dl3x9WhEc-3" source="6ghTXY3xs65dl3x9WhEc-9" target="6ghTXY3xs65dl3x9WhEc-11">
          <mxGeometry width="50" height="50" relative="1" as="geometry">
            <mxPoint x="260" y="230" as="sourcePoint" />
            <mxPoint x="310" y="180" as="targetPoint" />
          </mxGeometry>
        </mxCell>
        <mxCell id="6ghTXY3xs65dl3x9WhEc-41" value="" style="endArrow=classic;html=1;rounded=0;entryX=0.015;entryY=0.632;entryDx=0;entryDy=0;exitX=1;exitY=0.5;exitDx=0;exitDy=0;entryPerimeter=0;" edge="1" parent="6ghTXY3xs65dl3x9WhEc-3" source="6ghTXY3xs65dl3x9WhEc-33" target="6ghTXY3xs65dl3x9WhEc-40">
          <mxGeometry width="50" height="50" relative="1" as="geometry">
            <mxPoint x="260" y="350" as="sourcePoint" />
            <mxPoint x="310" y="300" as="targetPoint" />
          </mxGeometry>
        </mxCell>
        <mxCell id="6ghTXY3xs65dl3x9WhEc-43" value="" style="endArrow=classic;html=1;rounded=0;entryX=0.5;entryY=0;entryDx=0;entryDy=0;exitX=0.5;exitY=1;exitDx=0;exitDy=0;" edge="1" parent="6ghTXY3xs65dl3x9WhEc-3" source="6ghTXY3xs65dl3x9WhEc-40" target="6ghTXY3xs65dl3x9WhEc-42">
          <mxGeometry width="50" height="50" relative="1" as="geometry">
            <mxPoint x="270" y="500" as="sourcePoint" />
            <mxPoint x="320" y="450" as="targetPoint" />
            <Array as="points">
              <mxPoint x="693" y="490" />
              <mxPoint x="421" y="490" />
            </Array>
          </mxGeometry>
        </mxCell>
        <mxCell id="6ghTXY3xs65dl3x9WhEc-61" value="" style="endArrow=classic;html=1;rounded=0;exitX=0;exitY=0.5;exitDx=0;exitDy=0;entryX=0.995;entryY=0.654;entryDx=0;entryDy=0;entryPerimeter=0;" edge="1" parent="6ghTXY3xs65dl3x9WhEc-3" source="6ghTXY3xs65dl3x9WhEc-53" target="6ghTXY3xs65dl3x9WhEc-60">
          <mxGeometry width="50" height="50" relative="1" as="geometry">
            <mxPoint x="270" y="680" as="sourcePoint" />
            <mxPoint x="320" y="630" as="targetPoint" />
          </mxGeometry>
        </mxCell>
        <mxCell id="6ghTXY3xs65dl3x9WhEc-63" value="" style="endArrow=classic;html=1;rounded=0;exitX=0.5;exitY=1;exitDx=0;exitDy=0;entryX=0;entryY=0.5;entryDx=0;entryDy=0;" edge="1" parent="6ghTXY3xs65dl3x9WhEc-3" source="6ghTXY3xs65dl3x9WhEc-60" target="6ghTXY3xs65dl3x9WhEc-62">
          <mxGeometry width="50" height="50" relative="1" as="geometry">
            <mxPoint x="270" y="680" as="sourcePoint" />
            <mxPoint x="320" y="630" as="targetPoint" />
            <Array as="points">
              <mxPoint x="115" y="810" />
            </Array>
          </mxGeometry>
        </mxCell>
        <mxCell id="6ghTXY3xs65dl3x9WhEc-49" value="Not yet" style="text;html=1;align=center;verticalAlign=middle;resizable=0;points=[];autosize=1;strokeColor=none;fillColor=none;" vertex="1" parent="1">
          <mxGeometry x="400" y="98" width="60" height="30" as="geometry" />
        </mxCell>
        <mxCell id="6ghTXY3xs65dl3x9WhEc-57" value="No" style="text;html=1;align=center;verticalAlign=middle;resizable=0;points=[];autosize=1;strokeColor=none;fillColor=none;" vertex="1" parent="1">
          <mxGeometry x="410" y="238" width="40" height="30" as="geometry" />
        </mxCell>
        <mxCell id="6ghTXY3xs65dl3x9WhEc-58" value="Yes" style="text;html=1;align=center;verticalAlign=middle;resizable=0;points=[];autosize=1;strokeColor=none;fillColor=none;" vertex="1" parent="1">
          <mxGeometry x="620" y="248" width="40" height="30" as="geometry" />
        </mxCell>
      </root>
    </mxGraphModel>
  </diagram>
</mxfile>
